<?xml version="1.0" encoding="UTF-8" standalone="no"?>
<svg
   width="175"
   height="40"
   viewBox="0 0 175 40"
   fill="none"
   version="1.1"
   id="svg6"
   sodipodi:docname="flowsta_signin_web_dark_pill.svg"
   xml:space="preserve"
   inkscape:version="1.4.2 (2aeb623e1d, 2025-05-12)"
   xmlns:inkscape="http://www.inkscape.org/namespaces/inkscape"
   xmlns:sodipodi="http://sodipodi.sourceforge.net/DTD/sodipodi-0.dtd"
   xmlns="http://www.w3.org/2000/svg"
   xmlns:svg="http://www.w3.org/2000/svg"><sodipodi:namedview
     id="namedview6"
     pagecolor="#ffffff"
     bordercolor="#000000"
     borderopacity="0.25"
     inkscape:showpageshadow="2"
     inkscape:pageopacity="0.0"
     inkscape:pagecheckerboard="0"
     inkscape:deskcolor="#d1d1d1"
     inkscape:zoom="3.6971583"
     inkscape:cx="179.73263"
     inkscape:cy="80.467206"
     inkscape:window-width="1920"
     inkscape:window-height="930"
     inkscape:window-x="0"
     inkscape:window-y="0"
     inkscape:window-maximized="1"
     inkscape:current-layer="svg6" /><rect
     x="0.5"
     y="0.5"
     width="174"
     height="39"
     rx="19.5"
     fill="#131314"
     id="rect1" /><g
     clip-path="url(#clip0_710_6231)"
     id="g4"
     style="display:none"><path
       d="m 31.6,20.2273 c 0,-0.7091 -0.0636,-1.3909 -0.1818,-2.0455 H 22 V 22.05 h 5.3818 c -0.2318,1.25 -0.9363,2.3091 -1.9954,3.0182 v 2.5091 h 3.2318 C 30.5091,25.8364 31.6,23.2727 31.6,20.2273 Z"
       fill="#4285f4"
       id="path1" /><path
       d="m 22,30 c 2.7,0 4.9636,-0.8955 6.6181,-2.4227 l -3.2318,-2.5091 c -0.8954,0.6 -2.0409,0.9545 -3.3863,0.9545 -2.6046,0 -4.8091,-1.7591 -5.5955,-4.1227 h -3.3409 v 2.5909 C 14.7091,27.7591 18.0909,30 22,30 Z"
       fill="#34a853"
       id="path2" /><path
       d="m 16.4045,21.9 c -0.2,-0.6 -0.3136,-1.2409 -0.3136,-1.9 0,-0.6591 0.1136,-1.3 0.3136,-1.9 V 15.5091 H 13.0636 C 12.3864,16.8591 12,18.3864 12,20 c 0,1.6136 0.3864,3.1409 1.0636,4.4909 z"
       fill="#fbbc04"
       id="path3" /><path
       d="m 22,13.9773 c 1.4681,0 2.7863,0.5045 3.8227,1.4954 l 2.8682,-2.8682 C 26.9591,10.9909 24.6954,10 22,10 c -3.9091,0 -7.2909,2.2409 -8.9364,5.5091 L 16.4045,18.1 C 17.1909,15.7364 19.3954,13.9773 22,13.9773 Z"
       fill="#e94235"
       id="path4" /></g><path
     d="m 48.248,22.4365 c 0,-0.2051 -0.0319,-0.3873 -0.0957,-0.5469 -0.0592,-0.1595 -0.1663,-0.3053 -0.3212,-0.4375 -0.155,-0.1321 -0.3737,-0.2597 -0.6563,-0.3828 -0.278,-0.1276 -0.6335,-0.2575 -1.0664,-0.3896 -0.474,-0.1458 -0.9115,-0.3076 -1.3125,-0.4854 -0.3965,-0.1823 -0.7428,-0.3919 -1.0391,-0.6289 -0.2962,-0.2415 -0.5263,-0.5172 -0.6904,-0.8271 -0.1641,-0.3145 -0.2461,-0.6768 -0.2461,-1.0869 0,-0.4056 0.0843,-0.7748 0.2529,-1.1075 0.1732,-0.3326 0.417,-0.6197 0.7315,-0.8613 0.319,-0.2461 0.695,-0.4352 1.1279,-0.5674 0.433,-0.1367 0.9115,-0.205 1.4356,-0.205 0.7382,0 1.374,0.1367 1.9072,0.4101 0.5378,0.2735 0.9502,0.6403 1.2373,1.1006 0.2917,0.4603 0.4375,0.9684 0.4375,1.5244 H 48.248 c 0,-0.3281 -0.0706,-0.6175 -0.2119,-0.8682 -0.1367,-0.2552 -0.3463,-0.4557 -0.6289,-0.6015 -0.278,-0.1458 -0.6312,-0.2188 -1.0595,-0.2188 -0.4056,0 -0.7429,0.0616 -1.0118,0.1846 -0.2688,0.1231 -0.4694,0.2894 -0.6015,0.499 -0.1322,0.2097 -0.1983,0.4466 -0.1983,0.711 0,0.1868 0.0433,0.3577 0.1299,0.5127 0.0866,0.1504 0.2188,0.2916 0.3965,0.4238 0.1777,0.1276 0.401,0.2484 0.6699,0.3623 0.2689,0.1139 0.5856,0.2233 0.9502,0.3281 0.5514,0.1641 1.0322,0.3464 1.4424,0.5469 0.4102,0.196 0.752,0.4193 1.0254,0.6699 0.2734,0.2507 0.4785,0.5355 0.6152,0.8545 0.1367,0.3145 0.2051,0.6722 0.2051,1.0733 0,0.4192 -0.0843,0.7975 -0.2529,1.1347 -0.1686,0.3327 -0.4102,0.6175 -0.7246,0.8545 -0.3099,0.2324 -0.6836,0.4124 -1.1211,0.54 -0.433,0.1231 -0.916,0.1846 -1.4492,0.1846 -0.4786,0 -0.9502,-0.0638 -1.4151,-0.1914 -0.4603,-0.1276 -0.8795,-0.3213 -1.2578,-0.581 -0.3783,-0.2644 -0.679,-0.5925 -0.9023,-0.9844 -0.2234,-0.3965 -0.335,-0.8591 -0.335,-1.3877 h 1.7158 c 0,0.3236 0.0547,0.5993 0.1641,0.8271 0.1139,0.2279 0.2711,0.4147 0.4717,0.5606 0.2005,0.1413 0.4329,0.2461 0.6972,0.3144 0.2689,0.0684 0.556,0.1026 0.8614,0.1026 0.401,0 0.736,-0.057 1.0048,-0.1709 0.2735,-0.114 0.4785,-0.2735 0.6153,-0.4785 0.1367,-0.2051 0.205,-0.4421 0.205,-0.711 z m 4.8399,-4.833 V 25 h -1.6543 v -7.3965 z m -1.7637,-1.9414 c 0,-0.2506 0.082,-0.458 0.2461,-0.6221 0.1686,-0.1686 0.4011,-0.2529 0.6973,-0.2529 0.2916,0 0.5218,0.0843 0.6904,0.2529 0.1686,0.1641 0.2529,0.3715 0.2529,0.6221 0,0.2461 -0.0843,0.4512 -0.2529,0.6152 -0.1686,0.1641 -0.3988,0.2461 -0.6904,0.2461 -0.2962,0 -0.5287,-0.082 -0.6973,-0.2461 -0.1641,-0.164 -0.2461,-0.3691 -0.2461,-0.6152 z m 8.3057,1.9414 h 1.4971 v 7.1914 c 0,0.6654 -0.1413,1.2305 -0.4239,1.6953 -0.2825,0.4649 -0.6767,0.8181 -1.1826,1.0596 -0.5059,0.2461 -1.0915,0.3691 -1.7568,0.3691 -0.2826,0 -0.597,-0.041 -0.9434,-0.123 -0.3418,-0.082 -0.6745,-0.2142 -0.998,-0.3965 -0.319,-0.1777 -0.5856,-0.4124 -0.7998,-0.7041 l 0.7724,-0.9707 c 0.2643,0.3145 0.556,0.5446 0.875,0.6904 0.319,0.1459 0.654,0.2188 1.0049,0.2188 0.3783,0 0.6995,-0.0706 0.9639,-0.2119 0.2689,-0.1367 0.4762,-0.3395 0.622,-0.6084 0.1459,-0.2689 0.2188,-0.597 0.2188,-0.9844 v -5.5508 z m -5.0244,3.7803 v -0.1436 c 0,-0.5605 0.0683,-1.0709 0.205,-1.5312 0.1368,-0.4649 0.3327,-0.8636 0.5879,-1.1963 0.2552,-0.3372 0.5651,-0.5947 0.9297,-0.7725 0.3646,-0.1823 0.777,-0.2734 1.2373,-0.2734 0.4785,0 0.8864,0.0866 1.2237,0.2598 0.3418,0.1731 0.6266,0.4215 0.8545,0.7451 0.2278,0.319 0.4056,0.7018 0.5332,1.1484 0.1321,0.4421 0.2301,0.9343 0.2939,1.4766 v 0.458 c -0.0592,0.5286 -0.1595,1.0117 -0.3008,1.4492 -0.1413,0.4375 -0.3281,0.8158 -0.5605,1.1348 -0.2324,0.319 -0.5196,0.5651 -0.8614,0.7383 -0.3372,0.1731 -0.736,0.2597 -1.1962,0.2597 -0.4512,0 -0.8591,-0.0934 -1.2237,-0.2803 -0.36,-0.1868 -0.6699,-0.4488 -0.9297,-0.7861 -0.2552,-0.3372 -0.4511,-0.7337 -0.5879,-1.1894 -0.1367,-0.4603 -0.205,-0.9594 -0.205,-1.4971 z m 1.6474,-0.1436 v 0.1436 c 0,0.3372 0.0319,0.6517 0.0957,0.9433 0.0684,0.2917 0.1709,0.5492 0.3076,0.7725 0.1413,0.2188 0.3191,0.3919 0.5333,0.5195 0.2187,0.1231 0.4762,0.1846 0.7724,0.1846 0.3874,0 0.7041,-0.082 0.9502,-0.2461 0.2507,-0.164 0.4421,-0.3851 0.5742,-0.6631 0.1367,-0.2825 0.2325,-0.597 0.2871,-0.9433 v -1.2373 c -0.0273,-0.2689 -0.0843,-0.5196 -0.1709,-0.752 -0.082,-0.2324 -0.1936,-0.4352 -0.3349,-0.6084 -0.1413,-0.1777 -0.319,-0.3144 -0.5332,-0.4101 -0.2142,-0.1003 -0.4671,-0.1504 -0.7588,-0.1504 -0.2962,0 -0.5537,0.0638 -0.7725,0.1914 -0.2187,0.1276 -0.3987,0.303 -0.54,0.5263 -0.1367,0.2233 -0.2393,0.4831 -0.3076,0.7793 -0.0684,0.2963 -0.1026,0.613 -0.1026,0.9502 z m 8.2168,-2.0576 V 25 h -1.6474 v -7.3965 h 1.5517 z m -0.2939,1.8457 -0.5332,-0.0068 c 0.0045,-0.5241 0.0775,-1.0049 0.2187,-1.4424 0.1459,-0.4375 0.3464,-0.8135 0.6016,-1.1279 0.2598,-0.3145 0.5697,-0.556 0.9297,-0.7246 0.36,-0.1732 0.761,-0.2598 1.2031,-0.2598 0.3555,0 0.6768,0.0501 0.9639,0.1504 0.2916,0.0957 0.54,0.2529 0.7451,0.4717 0.2096,0.2187 0.3691,0.5035 0.4785,0.8545 0.1094,0.3463 0.1641,0.7724 0.1641,1.2783 V 25 H 67.293 v -4.7852 c 0,-0.3554 -0.0524,-0.6357 -0.1573,-0.8408 C 67.0355,19.1644 66.8874,19.0163 66.6914,18.9297 66.5,18.8385 66.2607,18.793 65.9736,18.793 c -0.2825,0 -0.5354,0.0592 -0.7588,0.1777 -0.2233,0.1185 -0.4124,0.2803 -0.5673,0.4854 -0.1504,0.205 -0.2666,0.442 -0.3487,0.7109 -0.082,0.2689 -0.123,0.556 -0.123,0.8613 z M 75.8789,17.6035 V 25 h -1.6543 v -7.3965 z m -1.7637,-1.9414 c 0,-0.2506 0.0821,-0.458 0.2461,-0.6221 0.1686,-0.1686 0.4011,-0.2529 0.6973,-0.2529 0.2917,0 0.5218,0.0843 0.6904,0.2529 0.1686,0.1641 0.253,0.3715 0.253,0.6221 0,0.2461 -0.0844,0.4512 -0.253,0.6152 -0.1686,0.1641 -0.3987,0.2461 -0.6904,0.2461 -0.2962,0 -0.5287,-0.082 -0.6973,-0.2461 -0.164,-0.164 -0.2461,-0.3691 -0.2461,-0.6152 z m 5.2022,3.5205 V 25 h -1.6475 v -7.3965 h 1.5518 z m -0.294,1.8457 -0.5332,-0.0068 c 0.0046,-0.5241 0.0775,-1.0049 0.2188,-1.4424 0.1458,-0.4375 0.3463,-0.8135 0.6015,-1.1279 0.2598,-0.3145 0.5697,-0.556 0.9297,-0.7246 0.3601,-0.1732 0.7611,-0.2598 1.2032,-0.2598 0.3554,0 0.6767,0.0501 0.9638,0.1504 0.2917,0.0957 0.5401,0.2529 0.7451,0.4717 0.2097,0.2187 0.3692,0.5035 0.4786,0.8545 0.1093,0.3463 0.164,0.7724 0.164,1.2783 V 25 h -1.6543 v -4.7852 c 0,-0.3554 -0.0524,-0.6357 -0.1572,-0.8408 -0.1003,-0.2096 -0.2484,-0.3577 -0.4443,-0.4443 -0.1914,-0.0912 -0.4307,-0.1367 -0.7178,-0.1367 -0.2826,0 -0.5355,0.0592 -0.7588,0.1777 -0.2233,0.1185 -0.4124,0.2803 -0.5674,0.4854 -0.1504,0.205 -0.2666,0.442 -0.3486,0.7109 -0.082,0.2689 -0.1231,0.556 -0.1231,0.8613 z m 11.9493,2.3311 1.7089,-5.7559 h 1.0528 L 93.4473,19.3262 91.7246,25 h -0.9434 z m -1.0049,-5.7559 1.333,5.7832 L 91.4102,25 h -1.0528 l -2.0029,-7.3965 z m 5.3662,5.7149 1.292,-5.7149 h 1.6064 L 96.2363,25 H 95.1836 Z M 93.9121,17.6035 95.6006,23.291 95.8125,25 H 94.8691 L 93.126,19.3193 92.8389,17.6035 Z m 7.2049,0 V 25 h -1.6541 v -7.3965 z m -1.7635,-1.9414 c 0,-0.2506 0.082,-0.458 0.2461,-0.6221 0.1686,-0.1686 0.4014,-0.2529 0.6974,-0.2529 0.292,0 0.522,0.0843 0.69,0.2529 0.169,0.1641 0.253,0.3715 0.253,0.6221 0,0.2461 -0.084,0.4512 -0.253,0.6152 -0.168,0.1641 -0.398,0.2461 -0.69,0.2461 -0.296,0 -0.5288,-0.082 -0.6974,-0.2461 -0.1641,-0.164 -0.2461,-0.3691 -0.2461,-0.6152 z m 6.9585,1.9414 v 1.2031 h -4.169 v -1.2031 z m -2.966,-1.8115 h 1.647 v 7.1641 c 0,0.2278 0.032,0.4033 0.096,0.5263 0.068,0.1185 0.162,0.1983 0.28,0.2393 0.119,0.041 0.258,0.0615 0.417,0.0615 0.114,0 0.223,-0.0068 0.328,-0.0205 0.105,-0.0137 0.189,-0.0273 0.253,-0.041 l 0.007,1.2578 c -0.137,0.041 -0.296,0.0775 -0.478,0.1094 -0.178,0.0319 -0.383,0.0478 -0.616,0.0478 -0.378,0 -0.713,-0.0661 -1.005,-0.1982 -0.291,-0.1367 -0.519,-0.3578 -0.683,-0.6631 -0.164,-0.3053 -0.246,-0.7109 -0.246,-1.2168 z M 109.211,14.5 V 25 H 107.57 V 14.5 Z m -0.287,6.5283 -0.533,-0.0068 c 0.004,-0.5104 0.075,-0.9821 0.212,-1.4151 0.141,-0.4329 0.337,-0.8089 0.587,-1.1279 0.256,-0.3236 0.561,-0.5719 0.916,-0.7451 0.356,-0.1777 0.75,-0.2666 1.183,-0.2666 0.365,0 0.693,0.0501 0.984,0.1504 0.297,0.1002 0.552,0.262 0.766,0.4853 0.214,0.2188 0.376,0.5059 0.485,0.8614 0.114,0.3509 0.171,0.7793 0.171,1.2851 V 25 h -1.654 v -4.7646 c 0,-0.3555 -0.052,-0.6381 -0.157,-0.8477 -0.1,-0.2096 -0.249,-0.36 -0.445,-0.4512 -0.196,-0.0957 -0.435,-0.1435 -0.717,-0.1435 -0.297,0 -0.559,0.0592 -0.786,0.1777 -0.224,0.1185 -0.411,0.2803 -0.561,0.4854 -0.15,0.205 -0.264,0.442 -0.342,0.7109 -0.073,0.2689 -0.109,0.556 -0.109,0.8613 z m 17.732,-1.1142 v 3.8007 c -0.141,0.1869 -0.362,0.392 -0.663,0.6153 -0.296,0.2187 -0.69,0.4079 -1.182,0.5674 -0.493,0.1595 -1.106,0.2392 -1.839,0.2392 -0.625,0 -1.197,-0.1048 -1.716,-0.3144 -0.52,-0.2142 -0.969,-0.5264 -1.347,-0.9366 -0.374,-0.4101 -0.663,-0.9091 -0.868,-1.497 -0.205,-0.5925 -0.308,-1.267 -0.308,-2.0235 v -0.6904 c 0,-0.7519 0.094,-1.4219 0.281,-2.0098 0.191,-0.5924 0.465,-1.0937 0.82,-1.5039 0.355,-0.4101 0.784,-0.72 1.285,-0.9297 0.506,-0.2141 1.078,-0.3212 1.716,-0.3212 0.816,0 1.49,0.1367 2.023,0.4101 0.538,0.2689 0.953,0.6426 1.245,1.1211 0.291,0.4785 0.476,1.0254 0.553,1.6406 h -1.681 c -0.055,-0.3463 -0.162,-0.6562 -0.322,-0.9297 -0.155,-0.2734 -0.378,-0.4876 -0.67,-0.6425 -0.287,-0.1595 -0.66,-0.2393 -1.121,-0.2393 -0.396,0 -0.745,0.0752 -1.046,0.2256 -0.3,0.1504 -0.551,0.3714 -0.752,0.6631 -0.196,0.2916 -0.344,0.6471 -0.444,1.0664 -0.1,0.4193 -0.15,0.8978 -0.15,1.4355 v 0.7041 c 0,0.5469 0.057,1.0323 0.171,1.4561 0.118,0.4238 0.287,0.7816 0.505,1.0732 0.224,0.2917 0.495,0.5127 0.814,0.6631 0.319,0.1459 0.679,0.2188 1.08,0.2188 0.392,0 0.713,-0.0319 0.964,-0.0957 0.251,-0.0684 0.449,-0.1481 0.595,-0.2393 0.15,-0.0957 0.266,-0.1868 0.348,-0.2734 v -1.9756 h -2.071 v -1.2783 z m 1.422,1.4697 v -0.1572 c 0,-0.5332 0.078,-1.0277 0.233,-1.4834 0.154,-0.4603 0.378,-0.8591 0.669,-1.1963 0.297,-0.3418 0.657,-0.6061 1.081,-0.793 0.428,-0.1914 0.911,-0.2871 1.449,-0.2871 0.542,0 1.025,0.0957 1.449,0.2871 0.428,0.1869 0.791,0.4512 1.087,0.793 0.296,0.3372 0.522,0.736 0.677,1.1963 0.155,0.4557 0.232,0.9502 0.232,1.4834 v 0.1572 c 0,0.5332 -0.077,1.0277 -0.232,1.4834 -0.155,0.4557 -0.381,0.8545 -0.677,1.1963 -0.296,0.3372 -0.656,0.6015 -1.08,0.7929 -0.424,0.1869 -0.905,0.2803 -1.443,0.2803 -0.542,0 -1.027,-0.0934 -1.456,-0.2803 -0.423,-0.1914 -0.783,-0.4557 -1.08,-0.7929 -0.296,-0.3418 -0.522,-0.7406 -0.676,-1.1963 -0.155,-0.4557 -0.233,-0.9502 -0.233,-1.4834 z m 1.648,-0.1572 v 0.1572 c 0,0.3327 0.034,0.6471 0.102,0.9433 0.068,0.2963 0.176,0.556 0.321,0.7793 0.146,0.2234 0.333,0.3988 0.561,0.5264 0.228,0.1276 0.499,0.1914 0.813,0.1914 0.306,0 0.57,-0.0638 0.793,-0.1914 0.228,-0.1276 0.415,-0.303 0.561,-0.5264 0.146,-0.2233 0.253,-0.483 0.321,-0.7793 0.073,-0.2962 0.11,-0.6106 0.11,-0.9433 v -0.1572 c 0,-0.3282 -0.037,-0.6381 -0.11,-0.9297 -0.068,-0.2962 -0.177,-0.5583 -0.328,-0.7862 -0.146,-0.2278 -0.333,-0.4056 -0.56,-0.5332 -0.224,-0.1321 -0.49,-0.1982 -0.8,-0.1982 -0.31,0 -0.579,0.0661 -0.807,0.1982 -0.223,0.1276 -0.408,0.3054 -0.554,0.5332 -0.145,0.2279 -0.253,0.49 -0.321,0.7862 -0.068,0.2916 -0.102,0.6015 -0.102,0.9297 z m 6.295,0.1572 v -0.1572 c 0,-0.5332 0.078,-1.0277 0.233,-1.4834 0.155,-0.4603 0.378,-0.8591 0.67,-1.1963 0.296,-0.3418 0.656,-0.6061 1.08,-0.793 0.428,-0.1914 0.911,-0.2871 1.449,-0.2871 0.542,0 1.026,0.0957 1.449,0.2871 0.429,0.1869 0.791,0.4512 1.087,0.793 0.296,0.3372 0.522,0.736 0.677,1.1963 0.155,0.4557 0.232,0.9502 0.232,1.4834 v 0.1572 c 0,0.5332 -0.077,1.0277 -0.232,1.4834 -0.155,0.4557 -0.381,0.8545 -0.677,1.1963 -0.296,0.3372 -0.656,0.6015 -1.08,0.7929 -0.424,0.1869 -0.904,0.2803 -1.442,0.2803 -0.543,0 -1.028,-0.0934 -1.456,-0.2803 -0.424,-0.1914 -0.784,-0.4557 -1.08,-0.7929 -0.297,-0.3418 -0.522,-0.7406 -0.677,-1.1963 -0.155,-0.4557 -0.233,-0.9502 -0.233,-1.4834 z m 1.648,-0.1572 v 0.1572 c 0,0.3327 0.034,0.6471 0.102,0.9433 0.069,0.2963 0.176,0.556 0.322,0.7793 0.146,0.2234 0.332,0.3988 0.56,0.5264 0.228,0.1276 0.499,0.1914 0.814,0.1914 0.305,0 0.569,-0.0638 0.793,-0.1914 0.228,-0.1276 0.414,-0.303 0.56,-0.5264 0.146,-0.2233 0.253,-0.483 0.322,-0.7793 0.073,-0.2962 0.109,-0.6106 0.109,-0.9433 v -0.1572 c 0,-0.3282 -0.036,-0.6381 -0.109,-0.9297 -0.069,-0.2962 -0.178,-0.5583 -0.329,-0.7862 -0.145,-0.2278 -0.332,-0.4056 -0.56,-0.5332 -0.223,-0.1321 -0.49,-0.1982 -0.8,-0.1982 -0.31,0 -0.579,0.0661 -0.807,0.1982 -0.223,0.1276 -0.407,0.3054 -0.553,0.5332 -0.146,0.2279 -0.253,0.49 -0.322,0.7862 -0.068,0.2916 -0.102,0.6015 -0.102,0.9297 z m 11.348,-3.6231 h 1.497 v 7.1914 c 0,0.6654 -0.142,1.2305 -0.424,1.6953 -0.283,0.4649 -0.677,0.8181 -1.183,1.0596 -0.506,0.2461 -1.091,0.3691 -1.757,0.3691 -0.282,0 -0.597,-0.041 -0.943,-0.123 -0.342,-0.082 -0.674,-0.2142 -0.998,-0.3965 -0.319,-0.1777 -0.586,-0.4124 -0.8,-0.7041 l 0.773,-0.9707 c 0.264,0.3145 0.556,0.5446 0.875,0.6904 0.319,0.1459 0.654,0.2188 1.005,0.2188 0.378,0 0.699,-0.0706 0.963,-0.2119 0.269,-0.1367 0.477,-0.3395 0.622,-0.6084 0.146,-0.2689 0.219,-0.597 0.219,-0.9844 v -5.5508 z m -5.025,3.7803 v -0.1436 c 0,-0.5605 0.069,-1.0709 0.205,-1.5312 0.137,-0.4649 0.333,-0.8636 0.588,-1.1963 0.255,-0.3372 0.565,-0.5947 0.93,-0.7725 0.364,-0.1823 0.777,-0.2734 1.237,-0.2734 0.479,0 0.887,0.0866 1.224,0.2598 0.342,0.1731 0.626,0.4215 0.854,0.7451 0.228,0.319 0.406,0.7018 0.533,1.1484 0.133,0.4421 0.231,0.9343 0.294,1.4766 v 0.458 c -0.059,0.5286 -0.159,1.0117 -0.3,1.4492 -0.142,0.4375 -0.328,0.8158 -0.561,1.1348 -0.232,0.319 -0.519,0.5651 -0.861,0.7383 -0.337,0.1731 -0.736,0.2597 -1.197,0.2597 -0.451,0 -0.859,-0.0934 -1.223,-0.2803 -0.36,-0.1868 -0.67,-0.4488 -0.93,-0.7861 -0.255,-0.3372 -0.451,-0.7337 -0.588,-1.1894 -0.136,-0.4603 -0.205,-0.9594 -0.205,-1.4971 z m 1.648,-0.1436 v 0.1436 c 0,0.3372 0.032,0.6517 0.095,0.9433 0.069,0.2917 0.171,0.5492 0.308,0.7725 0.141,0.2188 0.319,0.3919 0.533,0.5195 0.219,0.1231 0.476,0.1846 0.773,0.1846 0.387,0 0.704,-0.082 0.95,-0.2461 0.25,-0.164 0.442,-0.3851 0.574,-0.6631 0.137,-0.2825 0.232,-0.597 0.287,-0.9433 v -1.2373 c -0.027,-0.2689 -0.084,-0.5196 -0.171,-0.752 -0.082,-0.2324 -0.193,-0.4352 -0.335,-0.6084 -0.141,-0.1777 -0.319,-0.3144 -0.533,-0.4101 -0.214,-0.1003 -0.467,-0.1504 -0.759,-0.1504 -0.296,0 -0.553,0.0638 -0.772,0.1914 -0.219,0.1276 -0.399,0.303 -0.54,0.5263 -0.137,0.2233 -0.239,0.4831 -0.308,0.7793 -0.068,0.2963 -0.102,0.613 -0.102,0.9502 z M 153.986,14.5 V 25 h -1.654 V 14.5 Z m 5.066,10.6367 c -0.547,0 -1.042,-0.0888 -1.484,-0.2666 -0.437,-0.1823 -0.811,-0.4352 -1.121,-0.7588 -0.305,-0.3235 -0.54,-0.7041 -0.704,-1.1416 -0.164,-0.4375 -0.246,-0.9092 -0.246,-1.415 v -0.2735 c 0,-0.5787 0.084,-1.1028 0.253,-1.5722 0.169,-0.4694 0.403,-0.8705 0.704,-1.2031 0.301,-0.3373 0.656,-0.5948 1.067,-0.7725 0.41,-0.1777 0.854,-0.2666 1.333,-0.2666 0.528,0 0.991,0.0889 1.387,0.2666 0.397,0.1777 0.725,0.4284 0.985,0.752 0.264,0.319 0.46,0.6995 0.587,1.1416 0.133,0.442 0.199,0.9296 0.199,1.4628 v 0.7041 h -5.715 v -1.1826 h 4.088 v -0.1299 c -0.009,-0.2962 -0.069,-0.5742 -0.178,-0.8339 -0.105,-0.2598 -0.267,-0.4694 -0.485,-0.6289 -0.219,-0.1596 -0.511,-0.2393 -0.875,-0.2393 -0.274,0 -0.518,0.0592 -0.732,0.1777 -0.209,0.114 -0.385,0.2803 -0.526,0.4991 -0.141,0.2187 -0.251,0.483 -0.328,0.7929 -0.073,0.3054 -0.11,0.6494 -0.11,1.0322 v 0.2735 c 0,0.3236 0.044,0.6243 0.13,0.9023 0.091,0.2735 0.224,0.5127 0.397,0.7178 0.173,0.2051 0.383,0.3669 0.629,0.4854 0.246,0.1139 0.526,0.1709 0.84,0.1709 0.397,0 0.75,-0.0798 1.06,-0.2393 0.31,-0.1595 0.579,-0.3851 0.807,-0.6768 l 0.868,0.8409 c -0.16,0.2324 -0.367,0.4557 -0.622,0.6699 -0.255,0.2096 -0.568,0.3805 -0.937,0.5127 -0.364,0.1321 -0.788,0.1982 -1.271,0.1982 z"
     fill="#e3e3e3"
     id="path5"
     style="display:none" /><rect
     x="0.5"
     y="0.5"
     width="174"
     height="39"
     rx="19.5"
     stroke="#8E918F"
     id="rect5" /><defs
     id="defs6"><clipPath
       id="clip0_710_6231"><rect
         width="20"
         height="20"
         fill="white"
         transform="translate(12 10)"
         id="rect6" /></clipPath><linearGradient
       id="oceanBlue"
       x1="26.040788"
       y1="26.040788"
       x2="185.62484"
       y2="185.62484"
       gradientUnits="userSpaceOnUse"><stop
         offset="0%"
         style="stop-color:#082f49;stop-opacity:1"
         id="stop1" /><stop
         offset="20%"
         style="stop-color:#0c4a6e;stop-opacity:1"
         id="stop2" /><stop
         offset="40%"
         style="stop-color:#0284c7;stop-opacity:1"
         id="stop3" /><stop
         offset="60%"
         style="stop-color:#38bdf8;stop-opacity:1"
         id="stop4" /><stop
         offset="80%"
         style="stop-color:#7dd3fc;stop-opacity:1"
         id="stop5" /><stop
         offset="100%"
         style="stop-color:#a5b4fc;stop-opacity:1"
         id="stop6" /></linearGradient><radialGradient
       id="oceanBlueRadial"
       cx="105.83281"
       cy="105.83281"
       r="103.72963"
       fx="105.83281"
       fy="105.83281"
       gradientUnits="userSpaceOnUse"><stop
         offset="0%"
         style="stop-color:#bfdbfe;stop-opacity:1"
         id="stop7" /><stop
         offset="30%"
         style="stop-color:#60a5fa;stop-opacity:1"
         id="stop8" /><stop
         offset="60%"
         style="stop-color:#2563eb;stop-opacity:1"
         id="stop9" /><stop
         offset="85%"
         style="stop-color:#1e3a8a;stop-opacity:1"
         id="stop10" /><stop
         offset="100%"
         style="stop-color:#1e1b4b;stop-opacity:0.9"
         id="stop11" /></radialGradient><linearGradient
       id="oceanBlueAccent"
       x1="185.62484"
       y1="26.040788"
       x2="26.040788"
       y2="185.62484"
       gradientUnits="userSpaceOnUse"><stop
         offset="0%"
         style="stop-color:#22d3ee;stop-opacity:0.8"
         id="stop12" /><stop
         offset="33%"
         style="stop-color:#3b82f6;stop-opacity:0.85"
         id="stop13" /><stop
         offset="66%"
         style="stop-color:#6366f1;stop-opacity:0.75"
         id="stop14" /><stop
         offset="100%"
         style="stop-color:#818cf8;stop-opacity:0.6"
         id="stop15" /></linearGradient></defs><g
     id="g6"
     transform="matrix(0.12547121,0,0,0.12547121,8.4670213,6.6892998)"><rect
       style="display:none;fill:#000000;stroke-width:5.29167;stroke-linejoin:bevel"
       id="rect15"
       width="211.66666"
       height="211.66666"
       x="0.27961251"
       y="0"
       inkscape:export-filename="../1fde5421/Flowsta-symbol-coloured-black-bg.png"
       inkscape:export-xdpi="96"
       inkscape:export-ydpi="96" /><g
       id="layer1"><path
         id="path-base"
         style="fill:url(#oceanBlueRadial)"
         d="m 105.83385,26.040788 c -14.673331,2e-6 -26.650045,11.840604 -26.871745,26.462467 -14.484478,0.219617 -26.239233,11.974372 -26.45885,26.45885 -14.621863,0.2217 -26.462465,12.198414 -26.462467,26.871745 0,14.67335 11.840589,26.65006 26.462467,26.87174 0.22064,14.48358 11.97502,26.2377 26.45885,26.4573 0.221703,14.62186 12.198415,26.46195 26.871745,26.46195 14.67335,0 26.65006,-11.84007 26.87174,-26.46195 14.48294,-0.22063 26.23667,-11.97436 26.4573,-26.4573 14.62188,-0.22168 26.46195,-12.19839 26.46195,-26.87174 0,-14.67333 -11.84009,-26.650042 -26.46195,-26.871745 -0.2196,-14.48383 -11.97372,-26.23821 -26.4573,-26.45885 C 132.48391,37.881377 120.5072,26.040788 105.83385,26.040788 Z M 79.374999,57.790787 c 0.0092,0 0.01818,-1.1e-5 0.02739,0 2.010503,10.913206 10.643619,19.546319 21.556821,21.556824 1e-5,0.0092 0,0.01818 0,0.02739 0,11.951375 -9.632835,21.584209 -21.58421,21.584209 -0.0092,0 -0.01818,1e-5 -0.02739,0 C 77.337106,90.046007 68.703993,81.412891 57.790787,79.402388 c -1.1e-5,-0.0092 0,-0.01818 0,-0.02739 0,-11.951375 9.632837,-21.584212 21.584212,-21.584211 z m 52.890311,0 c 0.009,-1e-5 0.0173,0 0.0258,0 11.95137,0 21.58369,9.632837 21.58369,21.584212 0,0.0092 2e-5,0.01818 0,0.02739 -10.9132,2.010503 -19.5458,10.64362 -21.5563,21.556821 -0.009,1e-5 -0.0182,0 -0.0274,0 -11.95138,0 -21.58215,-9.632835 -21.58215,-21.58421 0,-0.0092 -1e-5,-0.01818 0,-0.02739 10.91322,-2.010502 19.54581,-10.643614 21.55631,-21.556824 z m -26.43249,26.312089 c 1.96851,11.031656 10.69828,19.761424 21.72994,21.729944 -11.03166,1.96851 -19.76143,10.69828 -21.72994,21.72994 C 103.8643,116.5311 95.134532,107.80133 84.102876,105.83282 95.134532,103.8643 103.8643,95.134532 105.83282,84.102876 Z M 79.347611,110.709 c 0.0092,-1e-5 0.01818,0 0.02739,0 11.951375,0 21.584209,9.63077 21.584209,21.58215 0,0.009 1e-5,0.0182 0,0.0274 -10.9132,2.0105 -19.546317,10.6431 -21.55682,21.5563 -0.0092,2e-5 -0.01818,0 -0.02739,0 -11.951375,0 -21.584212,-9.63232 -21.584212,-21.58369 0,-0.009 -10e-6,-0.0173 0,-0.0258 10.91321,-2.0105 19.546322,-10.64309 21.556824,-21.55631 z m 52.943539,0 c 0.009,0 0.0182,-1e-5 0.0274,0 2.0105,10.91322 10.64309,19.54581 21.5563,21.55631 1e-5,0.009 0,0.0173 0,0.0258 0,11.95137 -9.63232,21.58369 -21.58369,21.58369 -0.009,0 -0.0173,1e-5 -0.0258,0 -2.0105,-10.91321 -10.64309,-19.5458 -21.55631,-21.5563 -1e-5,-0.009 0,-0.0182 0,-0.0274 0,-11.95138 9.63077,-21.58215 21.58215,-21.58215 z" /><path
         id="path-gradient"
         style="opacity:0.8;mix-blend-mode:overlay;fill:url(#oceanBlue)"
         d="m 105.83385,26.040788 c -14.673331,2e-6 -26.650045,11.840604 -26.871745,26.462467 -14.484478,0.219617 -26.239233,11.974372 -26.45885,26.45885 -14.621863,0.2217 -26.462465,12.198414 -26.462467,26.871745 0,14.67335 11.840589,26.65006 26.462467,26.87174 0.22064,14.48358 11.97502,26.2377 26.45885,26.4573 0.221703,14.62186 12.198415,26.46195 26.871745,26.46195 14.67335,0 26.65006,-11.84007 26.87174,-26.46195 14.48294,-0.22063 26.23667,-11.97436 26.4573,-26.4573 14.62188,-0.22168 26.46195,-12.19839 26.46195,-26.87174 0,-14.67333 -11.84009,-26.650042 -26.46195,-26.871745 -0.2196,-14.48383 -11.97372,-26.23821 -26.4573,-26.45885 C 132.48391,37.881377 120.5072,26.040788 105.83385,26.040788 Z M 79.374999,57.790787 c 0.0092,0 0.01818,-1.1e-5 0.02739,0 2.010503,10.913206 10.643619,19.546319 21.556821,21.556824 1e-5,0.0092 0,0.01818 0,0.02739 0,11.951375 -9.632835,21.584209 -21.58421,21.584209 -0.0092,0 -0.01818,1e-5 -0.02739,0 C 77.337106,90.046007 68.703993,81.412891 57.790787,79.402388 c -1.1e-5,-0.0092 0,-0.01818 0,-0.02739 0,-11.951375 9.632837,-21.584212 21.584212,-21.584211 z m 52.890311,0 c 0.009,-1e-5 0.0173,0 0.0258,0 11.95137,0 21.58369,9.632837 21.58369,21.584212 0,0.0092 2e-5,0.01818 0,0.02739 -10.9132,2.010503 -19.5458,10.64362 -21.5563,21.556821 -0.009,1e-5 -0.0182,0 -0.0274,0 -11.95138,0 -21.58215,-9.632835 -21.58215,-21.58421 0,-0.0092 -1e-5,-0.01818 0,-0.02739 10.91322,-2.010502 19.54581,-10.643614 21.55631,-21.556824 z m -26.43249,26.312089 c 1.96851,11.031656 10.69828,19.761424 21.72994,21.729944 -11.03166,1.96851 -19.76143,10.69828 -21.72994,21.72994 C 103.8643,116.5311 95.134532,107.80133 84.102876,105.83282 95.134532,103.8643 103.8643,95.134532 105.83282,84.102876 Z M 79.347611,110.709 c 0.0092,-1e-5 0.01818,0 0.02739,0 11.951375,0 21.584209,9.63077 21.584209,21.58215 0,0.009 1e-5,0.0182 0,0.0274 -10.9132,2.0105 -19.546317,10.6431 -21.55682,21.5563 -0.0092,2e-5 -0.01818,0 -0.02739,0 -11.951375,0 -21.584212,-9.63232 -21.584212,-21.58369 0,-0.009 -10e-6,-0.0173 0,-0.0258 10.91321,-2.0105 19.546322,-10.64309 21.556824,-21.55631 z m 52.943539,0 c 0.009,0 0.0182,-1e-5 0.0274,0 2.0105,10.91322 10.64309,19.54581 21.5563,21.55631 1e-5,0.009 0,0.0173 0,0.0258 0,11.95137 -9.63232,21.58369 -21.58369,21.58369 -0.009,0 -0.0173,1e-5 -0.0258,0 -2.0105,-10.91321 -10.64309,-19.5458 -21.55631,-21.5563 -1e-5,-0.009 0,-0.0182 0,-0.0274 0,-11.95138 9.63077,-21.58215 21.58215,-21.58215 z" /><path
         id="path-accent"
         style="opacity:0.6;mix-blend-mode:screen;fill:url(#oceanBlueAccent)"
         d="m 105.83385,26.040788 c -14.673331,2e-6 -26.650045,11.840604 -26.871745,26.462467 -14.484478,0.219617 -26.239233,11.974372 -26.45885,26.45885 -14.621863,0.2217 -26.462465,12.198414 -26.462467,26.871745 0,14.67335 11.840589,26.65006 26.462467,26.87174 0.22064,14.48358 11.97502,26.2377 26.45885,26.4573 0.221703,14.62186 12.198415,26.46195 26.871745,26.46195 14.67335,0 26.65006,-11.84007 26.87174,-26.46195 14.48294,-0.22063 26.23667,-11.97436 26.4573,-26.4573 14.62188,-0.22168 26.46195,-12.19839 26.46195,-26.87174 0,-14.67333 -11.84009,-26.650042 -26.46195,-26.871745 -0.2196,-14.48383 -11.97372,-26.23821 -26.4573,-26.45885 C 132.48391,37.881377 120.5072,26.040788 105.83385,26.040788 Z M 79.374999,57.790787 c 0.0092,0 0.01818,-1.1e-5 0.02739,0 2.010503,10.913206 10.643619,19.546319 21.556821,21.556824 1e-5,0.0092 0,0.01818 0,0.02739 0,11.951375 -9.632835,21.584209 -21.58421,21.584209 -0.0092,0 -0.01818,1e-5 -0.02739,0 C 77.337106,90.046007 68.703993,81.412891 57.790787,79.402388 c -1.1e-5,-0.0092 0,-0.01818 0,-0.02739 0,-11.951375 9.632837,-21.584212 21.584212,-21.584211 z m 52.890311,0 c 0.009,-1e-5 0.0173,0 0.0258,0 11.95137,0 21.58369,9.632837 21.58369,21.584212 0,0.0092 2e-5,0.01818 0,0.02739 -10.9132,2.010503 -19.5458,10.64362 -21.5563,21.556821 -0.009,1e-5 -0.0182,0 -0.0274,0 -11.95138,0 -21.58215,-9.632835 -21.58215,-21.58421 0,-0.0092 -1e-5,-0.01818 0,-0.02739 10.91322,-2.010502 19.54581,-10.643614 21.55631,-21.556824 z m -26.43249,26.312089 c 1.96851,11.031656 10.69828,19.761424 21.72994,21.729944 -11.03166,1.96851 -19.76143,10.69828 -21.72994,21.72994 C 103.8643,116.5311 95.134532,107.80133 84.102876,105.83282 95.134532,103.8643 103.8643,95.134532 105.83282,84.102876 Z M 79.347611,110.709 c 0.0092,-1e-5 0.01818,0 0.02739,0 11.951375,0 21.584209,9.63077 21.584209,21.58215 0,0.009 1e-5,0.0182 0,0.0274 -10.9132,2.0105 -19.546317,10.6431 -21.55682,21.5563 -0.0092,2e-5 -0.01818,0 -0.02739,0 -11.951375,0 -21.584212,-9.63232 -21.584212,-21.58369 0,-0.009 -10e-6,-0.0173 0,-0.0258 10.91321,-2.0105 19.546322,-10.64309 21.556824,-21.55631 z m 52.943539,0 c 0.009,0 0.0182,-1e-5 0.0274,0 2.0105,10.91322 10.64309,19.54581 21.5563,21.55631 1e-5,0.009 0,0.0173 0,0.0258 0,11.95137 -9.63232,21.58369 -21.58369,21.58369 -0.009,0 -0.0173,1e-5 -0.0258,0 -2.0105,-10.91321 -10.64309,-19.5458 -21.55631,-21.5563 -1e-5,-0.009 0,-0.0182 0,-0.0274 0,-11.95138 9.63077,-21.58215 21.58215,-21.58215 z" /></g></g><path
     style="font-weight:500;font-size:14.2227px;font-family:roboto;-inkscape-font-specification:'roboto Medium';letter-spacing:-0.31px;fill:#ffffff;stroke-width:10.667;stroke-linejoin:bevel"
     d="m 48.132763,22.537706 q 0,-0.312511 -0.09722,-0.555574 -0.09028,-0.243064 -0.3264,-0.44446 -0.236119,-0.201395 -0.666689,-0.388902 -0.423625,-0.194451 -1.08337,-0.395846 -0.722246,-0.22223 -1.333378,-0.493072 -0.604187,-0.277787 -1.055591,-0.638911 -0.451404,-0.368068 -0.701412,-0.840306 -0.250009,-0.479182 -0.250009,-1.104203 0,-0.618077 0.256953,-1.125038 0.263898,-0.506962 0.743081,-0.87503 0.486127,-0.375012 1.145872,-0.576408 0.659744,-0.20834 1.458382,-0.20834 1.125038,0 1.937565,0.41668 0.819472,0.416681 1.256987,1.118094 0.444459,0.701412 0.444459,1.548663 h -1.729225 q 0,-0.500017 -0.215285,-0.881974 -0.20834,-0.388902 -0.63891,-0.611132 -0.423625,-0.22223 -1.076425,-0.22223 -0.618076,0 -1.027812,0.187507 -0.409736,0.187506 -0.611132,0.506961 -0.201396,0.319455 -0.201396,0.722247 0,0.284731 0.131949,0.52085 0.131949,0.229175 0.402792,0.43057 0.270842,0.194451 0.680578,0.368068 0.409736,0.173617 0.96531,0.333345 0.840306,0.250008 1.465327,0.555574 0.625021,0.298621 1.041702,0.680578 0.416681,0.381958 0.625021,0.868085 0.20834,0.479183 0.20834,1.090315 0,0.63891 -0.256953,1.152816 -0.256953,0.506962 -0.736136,0.868085 -0.472238,0.354178 -1.138927,0.548629 -0.659744,0.187507 -1.472272,0.187507 -0.729191,0 -1.437548,-0.194451 -0.701412,-0.194451 -1.277821,-0.590298 -0.576408,-0.402791 -0.916697,-1.000033 -0.340289,-0.604187 -0.340289,-1.40977 h 1.743114 q 0,0.493072 0.166672,0.840306 0.173617,0.347234 0.479183,0.569464 0.305566,0.215285 0.708357,0.319455 0.409736,0.10417 0.875029,0.10417 0.611132,0 1.020868,-0.173617 0.416681,-0.173617 0.625021,-0.486128 0.20834,-0.31251 0.20834,-0.722246 z m 4.606832,-4.909887 V 25.14196 H 51.058983 V 17.627819 Z M 50.947868,15.65553 q 0,-0.381957 0.250009,-0.631965 0.256953,-0.256953 0.708357,-0.256953 0.444459,0 0.701412,0.256953 0.256953,0.250008 0.256953,0.631965 0,0.375013 -0.256953,0.625021 -0.256953,0.250009 -0.701412,0.250009 -0.451404,0 -0.708357,-0.250009 -0.250009,-0.250008 -0.250009,-0.625021 z m 8.127784,1.972289 h 1.520885 v 7.305801 q 0,1.013923 -0.43057,1.72228 -0.43057,0.708357 -1.201429,1.076425 -0.77086,0.375013 -1.784783,0.375013 -0.43057,0 -0.958365,-0.125005 Q 55.700539,27.857329 55.207467,27.579542 54.721339,27.3087 54.39494,26.86424 l 0.784748,-0.986144 q 0.402792,0.479183 0.888919,0.701412 0.486127,0.22223 1.020868,0.22223 0.576408,0 0.979199,-0.215285 0.409736,-0.20834 0.631966,-0.618076 0.22223,-0.409736 0.22223,-1.000034 v -5.639078 z m -5.104338,3.840407 v -0.145839 q 0,-0.854195 0.208341,-1.555607 0.20834,-0.708358 0.597242,-1.215319 0.388902,-0.513906 0.944476,-0.784749 0.555574,-0.277787 1.256987,-0.277787 0.729191,0 1.243097,0.263898 0.520851,0.263898 0.868085,0.75697 0.347234,0.486127 0.541685,1.166706 0.201395,0.673633 0.298621,1.50005 v 0.465294 q -0.09028,0.805582 -0.305566,1.472271 -0.215285,0.666689 -0.569464,1.152817 -0.354178,0.486127 -0.875029,0.750025 -0.513906,0.263898 -1.215319,0.263898 -0.687523,0 -1.243097,-0.284732 -0.548629,-0.284732 -0.944476,-0.798638 -0.388902,-0.513906 -0.597242,-1.208374 -0.208341,-0.701412 -0.208341,-1.520884 z m 1.673668,-0.145839 v 0.145839 q 0,0.513906 0.09723,0.958365 0.10417,0.44446 0.312511,0.784749 0.215285,0.333344 0.541684,0.527795 0.333345,0.187507 0.784749,0.187507 0.590298,0 0.96531,-0.250009 0.381958,-0.250008 0.583353,-0.673634 0.208341,-0.43057 0.291677,-0.958365 V 20.787647 Q 59.179823,20.377911 59.047874,20.023733 58.92287,19.669554 58.707585,19.405656 58.4923,19.134814 58.1659,18.988976 q -0.3264,-0.152783 -0.77086,-0.152783 -0.451404,0 -0.784748,0.194451 -0.333345,0.194451 -0.54863,0.53474 -0.20834,0.340289 -0.31251,0.791693 -0.10417,0.451404 -0.10417,0.96531 z m 8.030557,-2.090348 v 5.909921 h -1.673667 v -7.514141 h 1.576442 z m -0.298621,1.875063 -0.541685,-0.0069 q 0.0069,-0.798638 0.22223,-1.465327 0.22223,-0.666689 0.611131,-1.145872 0.395847,-0.479183 0.944477,-0.736136 0.548629,-0.263898 1.222263,-0.263898 0.541685,0 0.9792,0.152783 0.444459,0.145838 0.756969,0.479183 0.319456,0.333344 0.486128,0.868085 0.166672,0.527795 0.166672,1.298654 v 4.85433 h -1.680612 v -4.861274 q 0,-0.541685 -0.159727,-0.854196 -0.152783,-0.319455 -0.451405,-0.451404 -0.291676,-0.138893 -0.729191,-0.138893 -0.43057,0 -0.770859,0.180561 -0.340289,0.180562 -0.576408,0.493072 -0.229175,0.312511 -0.354179,0.722247 -0.125004,0.409736 -0.125004,0.875029 z M 74.639262,17.627819 V 25.14196 H 72.95865 V 17.627819 Z M 72.847535,15.65553 q 0,-0.381957 0.250008,-0.631965 0.256953,-0.256953 0.708357,-0.256953 0.44446,0 0.701413,0.256953 0.256953,0.250008 0.256953,0.631965 0,0.375013 -0.256953,0.625021 -0.256953,0.250009 -0.701413,0.250009 -0.451404,0 -0.708357,-0.250009 -0.250008,-0.250008 -0.250008,-0.625021 z m 4.974901,3.576509 v 5.909921 h -1.673668 v -7.514141 h 1.576442 z m -0.298622,1.875063 -0.541684,-0.0069 q 0.0069,-0.798638 0.222229,-1.465327 0.22223,-0.666689 0.611132,-1.145872 0.395846,-0.479183 0.944476,-0.736136 0.54863,-0.263898 1.222263,-0.263898 0.541685,0 0.9792,0.152783 0.444459,0.145838 0.75697,0.479183 0.319455,0.333344 0.486127,0.868085 0.166672,0.527795 0.166672,1.298654 v 4.85433 h -1.680612 v -4.861274 q 0,-0.541685 -0.159727,-0.854196 -0.152783,-0.319455 -0.451404,-0.451404 -0.291677,-0.138893 -0.729191,-0.138893 -0.43057,0 -0.77086,0.180561 -0.340289,0.180562 -0.576408,0.493072 -0.229174,0.312511 -0.354178,0.722247 -0.125005,0.409736 -0.125005,0.875029 z m 11.512351,2.368135 1.736169,-5.847418 h 1.06948 l -0.291676,1.750059 -1.750059,5.764082 h -0.958365 z m -1.020868,-5.847418 1.354212,5.875197 0.111115,1.638944 h -1.06948 l -2.034791,-7.514141 z m 5.451572,5.80575 1.312544,-5.80575 h 1.631999 l -2.027845,7.514141 h -1.069481 z m -1.444493,-5.80575 1.715336,5.777972 0.215285,1.736169 h -0.958366 l -1.770893,-5.771027 -0.291676,-1.743114 z m 7.009691,0 V 25.14196 H 97.351455 V 17.627819 Z M 97.24034,15.65553 q 0,-0.381957 0.250008,-0.631965 0.256954,-0.256953 0.708358,-0.256953 0.444459,0 0.701412,0.256953 0.256953,0.250008 0.256953,0.631965 0,0.375013 -0.256953,0.625021 -0.256953,0.250009 -0.701412,0.250009 -0.451404,0 -0.708358,-0.250009 Q 97.24034,16.030543 97.24034,15.65553 Z m 6.75968,1.972289 v 1.222263 h -4.236253 v -1.222263 z m -3.01399,-1.84034 h 1.67367 v 7.278022 q 0,0.347234 0.0972,0.534741 0.10417,0.180561 0.28474,0.243063 0.18056,0.0625 0.42362,0.0625 0.17362,0 0.33335,-0.02083 0.15972,-0.02083 0.25695,-0.04167 l 0.007,1.277821 q -0.20834,0.0625 -0.48612,0.111115 -0.27085,0.04861 -0.62503,0.04861 -0.5764,0 -1.02086,-0.201396 -0.44446,-0.20834 -0.69447,-0.673634 -0.25001,-0.465293 -0.25001,-1.236152 z m 5.64854,-1.312544 V 25.14196 h -1.66673 V 14.474935 Z m -0.29168,6.632167 -0.54168,-0.0069 q 0.007,-0.777804 0.21528,-1.437549 0.21529,-0.659744 0.59724,-1.145871 0.38891,-0.493073 0.93059,-0.75697 0.54169,-0.270843 1.20143,-0.270843 0.55557,0 1.00003,0.152783 0.45141,0.152783 0.77781,0.493072 0.3264,0.333345 0.49307,0.87503 0.17362,0.53474 0.17362,1.305599 v 4.826551 h -1.68062 v -4.84044 q 0,-0.541685 -0.15972,-0.86114 -0.15279,-0.319456 -0.45141,-0.458349 -0.29862,-0.145838 -0.72919,-0.145838 -0.4514,0 -0.79864,0.180561 -0.34029,0.180562 -0.56946,0.493072 -0.22917,0.312511 -0.34723,0.722247 -0.11112,0.409736 -0.11112,0.875029 z m 11.36652,-6.076593 V 25.14196 h -1.74312 V 15.030509 Z m 4.12514,4.42376 v 1.381991 h -4.5696 v -1.381991 z m 0.5764,-4.42376 v 1.388936 h -5.146 v -1.388936 z m 2.70399,-0.555574 V 25.14196 h -1.68061 V 14.474935 Z m 1.20394,6.993291 v -0.159728 q 0,-0.812527 0.23612,-1.506995 0.23612,-0.701413 0.68058,-1.215319 0.4514,-0.520851 1.09726,-0.805582 0.6528,-0.291677 1.47227,-0.291677 0.82641,0 1.47227,0.291677 0.6528,0.284731 1.1042,0.805582 0.45141,0.513906 0.68753,1.215319 0.23612,0.694468 0.23612,1.506995 v 0.159728 q 0,0.812527 -0.23612,1.506995 -0.23612,0.694467 -0.68753,1.215318 -0.4514,0.513906 -1.09726,0.805583 -0.64585,0.284732 -1.46532,0.284732 -0.82642,0 -1.47922,-0.284732 -0.64585,-0.291677 -1.09726,-0.805583 -0.4514,-0.520851 -0.68752,-1.215318 -0.23612,-0.694468 -0.23612,-1.506995 z m 1.67367,-0.159728 v 0.159728 q 0,0.506961 0.10417,0.958365 0.10417,0.451404 0.3264,0.791693 0.22223,0.34029 0.56946,0.534741 0.34723,0.194451 0.82642,0.194451 0.46529,0 0.80558,-0.194451 0.34723,-0.194451 0.56946,-0.534741 0.22223,-0.340289 0.3264,-0.791693 0.11112,-0.451404 0.11112,-0.958365 v -0.159728 q 0,-0.500017 -0.11112,-0.944476 -0.10417,-0.451404 -0.33334,-0.798638 -0.22223,-0.347234 -0.56946,-0.541685 -0.34029,-0.201396 -0.81253,-0.201396 -0.47224,0 -0.81947,0.201396 -0.34029,0.194451 -0.56252,0.541685 -0.22223,0.347234 -0.3264,0.798638 -0.10417,0.444459 -0.10417,0.944476 z m 8.44724,2.166739 1.73617,-5.847418 h 1.06948 l -0.29168,1.750059 -1.75006,5.764082 h -0.95836 z m -1.02087,-5.847418 1.35421,5.875197 0.11112,1.638944 h -1.06948 l -2.03479,-7.514141 z m 5.45157,5.80575 1.31255,-5.80575 h 1.632 l -2.02785,7.514141 h -1.06948 z m -1.44449,-5.80575 1.71534,5.777972 0.21528,1.736169 h -0.95836 l -1.7709,-5.771027 -0.29167,-1.743114 z m 9.43338,5.479351 q 0,-0.250009 -0.12501,-0.451405 -0.125,-0.20834 -0.47918,-0.375012 -0.34723,-0.166672 -1.02781,-0.305566 -0.59724,-0.131949 -1.09726,-0.31251 -0.49307,-0.187507 -0.84725,-0.451404 -0.35418,-0.263898 -0.54863,-0.625021 -0.19445,-0.361124 -0.19445,-0.833362 0,-0.458349 0.20139,-0.868085 0.2014,-0.409736 0.57641,-0.722246 0.37501,-0.312511 0.90975,-0.493072 0.54169,-0.180562 1.20838,-0.180562 0.94447,0 1.61811,0.319455 0.68058,0.312511 1.0417,0.854196 0.36112,0.53474 0.36112,1.208374 h -1.67366 q 0,-0.298621 -0.15279,-0.555575 -0.14584,-0.263897 -0.44446,-0.423625 -0.29862,-0.166672 -0.75002,-0.166672 -0.43057,0 -0.7153,0.138893 -0.27779,0.131949 -0.41668,0.347234 -0.13195,0.215285 -0.13195,0.472238 0,0.187507 0.0694,0.34029 0.0764,0.145838 0.25001,0.270842 0.17362,0.11806 0.47224,0.22223 0.30557,0.10417 0.76391,0.201395 0.86114,0.180562 1.47922,0.465294 0.62502,0.277787 0.95837,0.722246 0.33334,0.437515 0.33334,1.111149 0,0.500017 -0.21528,0.916697 -0.20834,0.409736 -0.61114,0.715302 -0.40279,0.298621 -0.96531,0.465293 -0.55557,0.166673 -1.25004,0.166673 -1.02087,0 -1.72922,-0.361124 -0.70836,-0.368067 -1.07643,-0.937531 -0.36112,-0.576408 -0.36112,-1.194485 h 1.61811 q 0.0278,0.465294 0.25695,0.743081 0.23612,0.270842 0.58336,0.395847 0.35417,0.118059 0.72919,0.118059 0.4514,0 0.75697,-0.118059 0.30556,-0.125005 0.46529,-0.333345 0.15973,-0.215285 0.15973,-0.486127 z m 6.23884,-5.479351 v 1.222263 h -4.23626 v -1.222263 z m -3.014,-1.84034 h 1.67367 v 7.278022 q 0,0.347234 0.0972,0.534741 0.10417,0.180561 0.28473,0.243063 0.18056,0.0625 0.42362,0.0625 0.17362,0 0.33335,-0.02083 0.15973,-0.02083 0.25695,-0.04167 l 0.007,1.277821 q -0.20834,0.0625 -0.48613,0.111115 -0.27084,0.04861 -0.62502,0.04861 -0.57641,0 -1.02087,-0.201396 -0.44446,-0.20834 -0.69447,-0.673634 -0.25001,-0.465293 -0.25001,-1.236152 z m 8.23196,7.847486 v -3.583454 q 0,-0.402791 -0.14584,-0.694467 -0.14584,-0.291677 -0.44446,-0.451405 -0.29168,-0.159727 -0.73614,-0.159727 -0.40973,0 -0.70835,0.138893 -0.29862,0.138894 -0.4653,0.375013 -0.16667,0.236119 -0.16667,0.53474 h -1.66672 q 0,-0.444459 0.21528,-0.86114 0.21529,-0.41668 0.62502,-0.74308 0.40974,-0.3264 0.9792,-0.513906 0.56947,-0.187507 1.27783,-0.187507 0.84725,0 1.50005,0.284732 0.65974,0.284732 1.03475,0.86114 0.38196,0.569464 0.38196,1.430604 v 3.34039 q 0,0.513906 0.0694,0.923642 0.0764,0.402791 0.21528,0.701412 v 0.111115 h -1.71533 q -0.11806,-0.270842 -0.18751,-0.687523 -0.0625,-0.423625 -0.0625,-0.819472 z m 0.24306,-3.062603 0.0139,1.034757 h -1.20143 q -0.46529,0 -0.81947,0.09028 -0.35418,0.08334 -0.5903,0.250008 -0.23612,0.166673 -0.35418,0.402792 -0.11806,0.236119 -0.11806,0.53474 0,0.298621 0.1389,0.548629 0.13889,0.243064 0.40279,0.381958 0.27084,0.138893 0.6528,0.138893 0.5139,0 0.89586,-0.20834 0.3889,-0.215285 0.61113,-0.520851 0.22223,-0.31251 0.23612,-0.590298 l 0.54169,0.743081 q -0.0833,0.284732 -0.28473,0.611132 -0.2014,0.326399 -0.5278,0.625021 -0.31945,0.291676 -0.77086,0.479182 -0.44446,0.187507 -1.02781,0.187507 -0.73614,0 -1.31255,-0.291677 -0.5764,-0.298621 -0.9028,-0.798638 -0.3264,-0.506961 -0.3264,-1.145872 0,-0.597242 0.22223,-1.055591 0.22917,-0.465293 0.66669,-0.777803 0.44445,-0.312511 1.08337,-0.472239 0.63891,-0.166672 1.45838,-0.166672 z"
     id="text6"
     aria-label="Sign in with Flowsta" /></svg>
